<?xml version="1.0" encoding="utf-8"?>
<!-- Generator: Adobe Illustrator 17.1.0, SVG Export Plug-In . SVG Version: 6.00 Build 0)  -->
<!DOCTYPE svg PUBLIC "-//W3C//DTD SVG 1.1//EN" "http://www.w3.org/Graphics/SVG/1.1/DTD/svg11.dtd">
<svg version="1.1" id="Layer_1" xmlns="http://www.w3.org/2000/svg" xmlns:xlink="http://www.w3.org/1999/xlink" x="0px" y="0px"
	 viewBox="0 0 18 20" enable-background="new 0 0 18 20" xml:space="preserve">
<path fill="#ED5AAE" d="M17.9,12.7C17.9,12.6,17.9,12.6,17.9,12.7c0-0.3-0.1-0.5-0.4-0.7c-0.4-0.2-1-0.3-1.5,0
	c-0.6,0.4-1.3,1.2-1.7,1.8c-0.2-0.1-0.5-0.1-0.7,0C14.8,11.3,16.7,0,13.1,0c-0.8,0-2.5,1.9-4.3,3.3c-2.2,1.7-4.3,3-3.4,4
	C6.2,8.2,7.1,9.3,8,10.5c0,0-5.3-3.6-7.2,0.6c-1.9,4.2,0,6.4,0.4,6.9c0.3,0.5,4.6-0.2,6,0.4c-0.3,0.3-0.6,0.5-0.7,0.6
	c-0.8,0.7-0.3,1.3,0.6,0.9c0.8-0.4,7-4.3,7-4.3s0.9-0.7,0.6-1.4c0.4-0.5,1-1.3,1.6-1.6c0.4-0.2,0.9-0.2,1.2,0c0,0,0.1,0,0.1,0.1
	c0,0.1-0.1,0.1-0.2,0.1c-0.1,0-0.2,0-0.2,0c-0.1,0-0.2,0.1-0.1,0.2c0,0.1,0.1,0.2,0.2,0.1c0.1,0,0.2-0.1,0.2-0.1
	c0.1-0.1,0.2-0.1,0.3-0.2c0,0,0,0.1,0,0.1c0,0.1-0.1,0.2-0.2,0.2c-0.1,0-0.1,0-0.2,0c-0.1,0-0.1,0.1-0.1,0.2c0,0.1,0.1,0.1,0.2,0.1
	c0.1,0,0.2-0.1,0.2-0.2c0.2-0.1,0.2-0.2,0.2-0.3C18,12.9,17.9,12.8,17.9,12.7z"/>
</svg>
